<svg width="7" height="12" viewBox="0 0 7 12" fill="none" xmlns="http://www.w3.org/2000/svg">
<path d="M2.8001 5.9998L6.7001 2.0998C6.88343 1.91647 6.9751 1.68314 6.9751 1.3998C6.9751 1.11647 6.88343 0.883138 6.7001 0.699805C6.51676 0.516471 6.28343 0.424805 6.0001 0.424805C5.71676 0.424805 5.48343 0.516471 5.3001 0.699805L0.700098 5.2998C0.600098 5.3998 0.529264 5.50814 0.487597 5.6248C0.445931 5.74147 0.425097 5.86647 0.425097 5.9998C0.425097 6.13314 0.445931 6.25814 0.487597 6.3748C0.529264 6.49147 0.600098 6.5998 0.700098 6.6998L5.3001 11.2998C5.48343 11.4831 5.71676 11.5748 6.0001 11.5748C6.28343 11.5748 6.51676 11.4831 6.7001 11.2998C6.88343 11.1165 6.9751 10.8831 6.9751 10.5998C6.9751 10.3165 6.88343 10.0831 6.7001 9.89981L2.8001 5.9998Z" fill="#C7C7C7"/>
</svg>
